<svg width="25" height="24" viewBox="0 0 25 24" fill="none" xmlns="http://www.w3.org/2000/svg">
<g id="Frame" clip-path="url(#clip0_1_784)">
<path id="Vector" d="M5.963 4.433C7.77756 2.86066 10.099 1.99665 12.5 2C18.023 2 22.5 6.477 22.5 12C22.5 14.136 21.83 16.116 20.69 17.74L17.5 12H20.5C20.5001 10.4316 20.0392 8.89781 19.1747 7.58926C18.3101 6.28071 17.0799 5.25516 15.6372 4.64013C14.1944 4.02509 12.6027 3.8477 11.06 4.13002C9.5172 4.41234 8.09145 5.1419 6.96 6.228L5.963 4.433ZM19.037 19.567C17.2224 21.1393 14.901 22.0034 12.5 22C6.977 22 2.5 17.523 2.5 12C2.5 9.864 3.17 7.884 4.31 6.26L7.5 12H4.5C4.49987 13.5684 4.96075 15.1022 5.82534 16.4107C6.68992 17.7193 7.92007 18.7448 9.36282 19.3599C10.8056 19.9749 12.3973 20.1523 13.94 19.87C15.4828 19.5877 16.9085 18.8581 18.04 17.772L19.037 19.567Z" fill="#3BCEAC" fill-opacity="0.75"/>
</g>
<defs>
<clipPath id="clip0_1_784">
<rect width="24" height="24" fill="white" transform="translate(0.5)"/>
</clipPath>
</defs>
</svg>
