<svg width="25" height="24" viewBox="0 0 25 24" fill="none" xmlns="http://www.w3.org/2000/svg">
<g id="Frame" clip-path="url(#clip0_1_762)">
<path id="Vector" d="M10.473 18H11.5V13H13.5V18H14.527C14.659 16.798 15.272 15.806 16.267 14.723C16.38 14.601 17.099 13.856 17.184 13.75C17.8902 12.8676 18.3329 11.8037 18.4611 10.6808C18.5892 9.55783 18.3976 8.42153 17.9082 7.40274C17.4189 6.38394 16.6517 5.52408 15.6951 4.92217C14.7384 4.32027 13.6313 4.0008 12.501 4.00056C11.3708 4.00032 10.2635 4.31931 9.30662 4.92081C8.34974 5.52231 7.58221 6.38184 7.09242 7.40043C6.60263 8.41901 6.4105 9.55523 6.53815 10.6782C6.6658 11.8012 7.10805 12.8653 7.81396 13.748C7.89996 13.855 8.62096 14.601 8.73196 14.722C9.72796 15.806 10.341 16.798 10.473 18ZM10.5 20V21H14.5V20H10.5ZM6.25396 15C5.31215 13.8233 4.72191 12.4045 4.55122 10.907C4.38054 9.40946 4.63636 7.89421 5.28921 6.53574C5.94207 5.17728 6.96539 4.03087 8.24132 3.22858C9.51724 2.42629 10.9938 2.00076 12.501 2.001C14.0082 2.00124 15.4847 2.42725 16.7604 3.22995C18.036 4.03264 19.059 5.17938 19.7114 6.53805C20.3638 7.89672 20.6192 9.41206 20.448 10.9095C20.2768 12.407 19.6861 13.8256 18.744 15.002C18.124 15.774 16.5 17 16.5 18.5V21C16.5 21.5304 16.2892 22.0391 15.9142 22.4142C15.5391 22.7893 15.0304 23 14.5 23H10.5C9.96953 23 9.46082 22.7893 9.08575 22.4142C8.71067 22.0391 8.49996 21.5304 8.49996 21V18.5C8.49996 17 6.87496 15.774 6.25396 15Z" fill="#3BCEAC" fill-opacity="0.75"/>
</g>
<defs>
<clipPath id="clip0_1_762">
<rect width="24" height="24" fill="white" transform="translate(0.5)"/>
</clipPath>
</defs>
</svg>
